<svg height="512" viewBox="0 0 64 64" width="512" xmlns="http://www.w3.org/2000/svg"><circle cx="32" cy="32" fill="#cfdfe8" r="29"/><path d="m53 32a29.557 29.557 0 0 1 2-9l-7 5c-1.908-5.608-9.339-8-19-8-15 0-22 12-22 12s8 12 22 12c9.661 0 17.092-2.392 19-8l7 5a29.557 29.557 0 0 1 -2-9z" fill="#7d8d9c"/><path d="m39 39h2a6 6 0 0 1 6 6v2a0 0 0 0 1 0 0h-2a6 6 0 0 1 -6-6v-2a0 0 0 0 1 0 0z" fill="#e1462b" transform="matrix(-1 0 0 -1 86 86)"/><path d="m18 16h2a6 6 0 0 1 6 6v2a0 0 0 0 1 0 0h-2a6 6 0 0 1 -6-6v-2a0 0 0 0 1 0 0z" fill="#e1462b" transform="matrix(-1 0 0 -1 44 40)"/><path d="m10 22.4-1.833-.8a26.183 26.183 0 0 1 11.353-12.413l.96 1.753a24.182 24.182 0 0 0 -10.48 11.46z" fill="#8cafbf"/><path d="m20 36.987a11 11 0 1 0 15.072 16.026l-2.74-2.913a7 7 0 1 1 -9.592-10.2z" fill="#8ec13f"/><path d="m22.74 39.9a7 7 0 1 0 9.592 10.2z" fill="#fcf05a"/><path d="m22.437 49.8a6.972 6.972 0 0 1 -1.8-3.634l6.899-1.166-1.582 6.818a6.969 6.969 0 0 1 -3.517-2.018z" fill="#e8d734"/><path d="m32.99 7a11 11 0 0 0 15.073 16.025l-2.74-2.913a7 7 0 1 1 -9.592-10.2z" fill="#8ec13f"/><path d="m35.731 9.914a7 7 0 1 0 9.592 10.2z" fill="#fcf05a"/><path d="m35.428 19.809a6.976 6.976 0 0 1 -1.8-3.634l6.9-1.162-1.582 6.818a6.969 6.969 0 0 1 -3.518-2.022z" fill="#e8d734"/><g fill="#ececec"><path d="m23.707 36.707-1.415-1.413a5.865 5.865 0 0 0 1.708-3.294 5.865 5.865 0 0 0 -1.708-3.294l1.415-1.413c.235.234 2.293 2.36 2.293 4.707s-2.058 4.473-2.293 4.707z"/><path d="m40.707 36.707-1.415-1.413a5.865 5.865 0 0 0 1.708-3.294 5.865 5.865 0 0 0 -1.708-3.294l1.415-1.413c.235.234 2.293 2.36 2.293 4.707s-2.058 4.473-2.293 4.707z"/><path d="m28.832 38.555-1.665-1.109a11.72 11.72 0 0 0 1.833-5.446 11.652 11.652 0 0 0 -1.832-5.445l1.664-1.11a13.606 13.606 0 0 1 2.168 6.555 13.606 13.606 0 0 1 -2.168 6.555z"/><path d="m34.832 38.555-1.665-1.109a11.72 11.72 0 0 0 1.833-5.446 11.652 11.652 0 0 0 -1.832-5.445l1.664-1.11a13.606 13.606 0 0 1 2.168 6.555 13.606 13.606 0 0 1 -2.168 6.555z"/></g><path d="m14 29h2v2h-2z" fill="#394d5c"/><path d="m43 51h2v2h-2z" fill="#8cafbf"/><path d="m39 54h2v2h-2z" fill="#8cafbf"/></svg>